<svg xmlns="http://www.w3.org/2000/svg" width="1100" height="905" viewBox="0 0 1100 905"><rect width="100%" height="100%" fill="white"/><text x="70" y="25" font-family="sans-serif" font-size="17">indoor_positioning_ios_20260914_133534</text><text x="12" y="70" font-family="sans-serif" font-size="12">Dynamic accel (m/s2)</text><path d="M85 75 V195 H1070" fill="none" stroke="#aab"/><path d="M86.68,141.69 L87.67,142.69 L88.67,142.19 L89.67,139.37 L90.66,139.41 L91.66,140.31 L92.66,140.96 L93.66,140.33 L94.65,143.38 L95.65,149.62 L96.65,149.60 L97.64,146.68 L98.64,146.25 L99.64,146.34 L100.63,146.14 L101.63,144.32 L102.63,145.81 L103.63,144.34 L104.62,141.92 L105.62,139.28 L106.62,133.39 L107.61,131.10 L108.61,127.43 L109.61,124.03 L110.61,146.28 L111.60,160.13 L112.60,154.10 L113.60,155.85 L114.59,167.75 L115.59,167.60 L116.59,154.66 L117.59,135.23 L118.58,121.49 L119.58,120.24 L120.58,126.35 L121.57,131.98 L122.57,130.87 L123.57,133.47 L124.57,130.01 L125.56,159.40 L126.56,181.38 L127.56,184.89 L128.55,169.02 L129.55,149.93 L130.55,133.29 L131.55,110.64 L132.54,133.09 L133.54,121.08 L134.54,96.33 L135.53,131.09 L136.53,146.38 L137.53,150.66 L138.53,157.16 L139.52,165.18 L140.52,159.91 L141.52,153.36 L142.51,153.25 L143.51,150.00 L144.51,140.11 L145.51,136.15 L146.50,123.41 L147.50,128.83 L148.50,134.69 L149.49,139.47 L150.49,155.79 L151.49,157.06 L152.49,154.27 L153.48,145.52 L154.48,147.05 L155.48,134.37 L156.47,139.93 L157.47,141.23 L158.47,137.61 L159.47,139.58 L160.46,146.36 L161.46,148.05 L162.46,144.23 L163.45,143.65 L164.45,141.09 L165.45,140.94 L166.45,142.89 L167.44,144.86 L168.44,142.67 L169.44,144.42 L170.43,145.16 L171.43,144.09 L172.43,141.58 L173.43,134.26 L174.42,142.60 L175.42,147.11 L176.42,140.79 L177.41,143.94 L178.41,144.43 L179.41,143.20 L180.40,143.69 L181.40,143.60 L182.40,142.90 L183.40,143.79 L184.39,144.42 L185.39,152.13 L186.39,144.10 L187.38,145.14 L188.38,144.23 L189.38,141.36 L190.38,132.63 L191.37,143.77 L192.37,156.56 L193.37,171.66 L194.36,154.34 L195.36,124.56 L196.36,118.98 L197.36,108.04 L198.35,117.82 L199.35,132.51 L200.35,136.63 L201.34,149.12 L202.34,177.25 L203.34,195.00 L204.34,185.29 L205.33,160.61 L206.33,133.63 L207.33,120.14 L208.32,112.26 L209.32,112.32 L210.32,111.29 L211.32,118.69 L212.31,142.38 L213.31,157.61 L214.31,160.76 L215.30,173.64 L216.30,172.56 L217.30,159.35 L218.30,137.48 L219.29,124.37 L220.29,130.12 L221.29,128.96 L222.28,127.76 L223.28,138.46 L224.28,143.34 L225.28,140.87 L226.27,163.19 L227.27,170.00 L228.27,161.64 L229.26,153.89 L230.26,149.49 L231.26,143.21 L232.26,134.30 L233.25,112.39 L234.25,102.97 L235.25,130.72 L236.24,124.58 L237.24,162.36 L238.24,185.23 L239.24,176.66 L240.23,156.54 L241.23,142.05 L242.23,134.15 L243.22,134.33 L244.22,113.55 L245.22,99.42 L246.22,111.95 L247.21,146.02 L248.21,177.76 L249.21,190.11 L250.20,188.41 L251.20,174.42 L252.20,143.43 L253.20,127.31 L254.19,112.21 L255.19,95.71 L256.19,105.12 L257.18,118.54 L258.18,119.48 L259.18,154.12 L260.17,185.62 L261.17,186.70 L262.17,181.03 L263.17,165.18 L264.16,152.52 L265.16,138.29 L266.16,107.61 L267.15,87.57 L268.15,105.57 L269.15,135.70 L270.15,157.54 L271.14,177.36 L272.14,187.63 L273.14,180.19 L274.13,157.20 L275.13,140.01 L276.13,125.56 L277.13,109.96 L278.12,100.76 L279.12,112.20 L280.12,126.58 L281.11,138.18 L282.11,170.18 L283.11,189.60 L284.11,182.57 L285.10,173.78 L286.10,159.66 L287.10,143.62 L288.09,114.76 L289.09,86.39 L290.09,80.00 L291.09,113.98 L292.08,148.25 L293.08,178.01 L294.08,183.50 L295.07,172.55 L296.07,155.54 L297.07,143.32 L298.07,135.69 L299.06,128.38 L300.06,115.54 L301.06,134.46 L302.05,148.25 L303.05,147.57 L304.05,162.78 L305.05,163.65 L306.04,156.89 L307.04,149.05 L308.04,139.28 L309.03,128.24 L310.03,121.32 L311.03,123.70 L312.03,134.70 L313.02,139.83 L314.02,143.27 L315.02,158.17 L316.01,165.58 L317.01,159.12 L318.01,149.31 L319.01,142.59 L320.00,137.89 L321.00,132.41 L322.00,123.68 L322.99,131.57 L323.99,139.81 L324.99,142.51 L325.99,146.34 L326.98,155.49 L327.98,151.95 L328.98,147.96 L329.97,149.74 L330.97,152.45 L331.97,150.68 L332.97,144.74 L333.96,139.41 L334.96,134.72 L335.96,134.81 L336.95,134.04 L337.95,134.08 L338.95,126.17 L339.94,119.42 L340.94,132.86 L341.94,157.14 L342.94,172.38 L343.93,174.72 L344.93,167.57 L345.93,161.36 L346.92,160.59 L347.92,154.19 L348.92,123.46 L349.92,97.28 L350.91,81.54 L351.91,109.93 L352.91,132.50 L353.90,156.46 L354.90,176.33 L355.90,184.85 L356.90,184.66 L357.89,165.07 L358.89,136.75 L359.89,124.11 L360.88,117.66 L361.88,102.90 L362.88,106.19 L363.88,134.29 L364.87,149.40 L365.87,165.57 L366.87,181.27 L367.86,182.17 L368.86,159.96 L369.86,148.84 L370.86,129.71 L371.85,123.92 L372.85,124.62 L373.85,124.81 L374.84,101.90 L375.84,139.18 L376.84,147.12 L377.84,172.93 L378.83,171.89 L379.83,165.66 L380.83,157.60 L381.82,143.46 L382.82,140.83 L383.82,130.75 L384.82,128.81 L385.81,123.40 L386.81,127.04 L387.81,136.11 L388.80,136.97 L389.80,166.42 L390.80,171.85 L391.80,163.85 L392.79,155.62 L393.79,143.04 L394.79,130.51 L395.78,119.03 L396.78,113.31 L397.78,109.74 L398.78,137.92 L399.77,127.09 L400.77,158.43 L401.77,180.84 L402.76,180.85 L403.76,169.65 L404.76,150.96 L405.76,146.06 L406.75,142.11 L407.75,120.20 L408.75,106.37 L409.74,104.67 L410.74,129.35 L411.74,146.11 L412.74,174.66 L413.73,185.51 L414.73,177.64 L415.73,159.59 L416.72,127.81 L417.72,135.08 L418.72,103.54 L419.71,97.62 L420.71,103.42 L421.71,139.59 L422.71,160.01 L423.70,172.26 L424.70,184.19 L425.70,174.65 L426.69,161.66 L427.69,141.46 L428.69,134.47 L429.69,128.11 L430.68,115.02 L431.68,103.59 L432.68,134.61 L433.67,145.97 L434.67,169.10 L435.67,164.11 L436.67,161.11 L437.66,152.59 L438.66,149.33 L439.66,135.65 L440.65,124.74 L441.65,122.71 L442.65,123.36 L443.65,138.92 L444.64,142.08 L445.64,154.63 L446.64,156.88 L447.63,156.19 L448.63,150.62 L449.63,145.96 L450.63,146.11 L451.62,146.51 L452.62,144.79 L453.62,141.01 L454.61,139.09 L455.61,138.11 L456.61,133.78 L457.61,132.16 L458.60,139.94 L459.60,138.97 L460.60,141.54 L461.59,146.23 L462.59,160.38 L463.59,159.86 L464.59,153.46 L465.58,146.81 L466.58,139.33 L467.58,136.06 L468.57,130.63 L469.57,127.21 L470.57,125.63 L471.57,127.98 L472.56,148.04 L473.56,149.89 L474.56,161.22 L475.55,160.23 L476.55,153.69 L477.55,149.37 L478.55,147.07 L479.54,142.86 L480.54,135.84 L481.54,134.24 L482.53,130.63 L483.53,126.73 L484.53,143.68 L485.53,146.47 L486.52,147.49 L487.52,157.88 L488.52,160.07 L489.51,149.49 L490.51,139.14 L491.51,135.53 L492.51,131.74 L493.50,131.42 L494.50,133.40 L495.50,136.38 L496.49,143.78 L497.49,149.02 L498.49,147.19 L499.48,147.86 L500.48,149.01 L501.48,150.83 L502.48,147.59 L503.47,143.54 L504.47,138.62 L505.47,140.19 L506.46,145.51 L507.46,144.52 L508.46,144.44 L509.46,146.39 L510.45,147.75 L511.45,146.80 L512.45,145.36 L513.44,142.53 L514.44,137.79 L515.44,127.44 L516.44,124.45 L517.43,132.30 L518.43,140.93 L519.43,142.70 L520.42,150.68 L521.42,164.14 L522.42,168.62 L523.42,168.08 L524.41,152.90 L525.41,134.08 L526.41,129.43 L527.40,130.69 L528.40,127.94 L529.40,119.72 L530.40,117.70 L531.39,135.06 L532.39,146.32 L533.39,157.83 L534.38,170.18 L535.38,173.07 L536.38,165.33 L537.38,151.43 L538.37,141.05 L539.37,130.90 L540.37,125.48 L541.36,122.35 L542.36,120.41 L543.36,130.43 L544.36,137.45 L545.35,150.31 L546.35,160.05 L547.35,154.94 L548.34,154.61 L549.34,156.10 L550.34,153.29 L551.34,132.67 L552.33,120.92 L553.33,125.20 L554.33,128.57 L555.32,147.20 L556.32,150.55 L557.32,151.88 L558.32,161.42 L559.31,163.75 L560.31,156.85 L561.31,149.70 L562.30,146.25 L563.30,138.69 L564.30,123.92 L565.30,115.59 L566.29,123.42 L567.29,140.98 L568.29,142.93 L569.28,157.39 L570.28,159.23 L571.28,153.90 L572.28,152.56 L573.27,139.99 L574.27,132.70 L575.27,127.81 L576.26,130.82 L577.26,132.82 L578.26,137.40 L579.25,149.27 L580.25,152.88 L581.25,159.18 L582.25,162.00 L583.24,155.65 L584.24,147.30 L585.24,144.68 L586.23,139.08 L587.23,135.26 L588.23,134.05 L589.23,124.54 L590.22,123.07 L591.22,136.58 L592.22,138.66 L593.21,147.11 L594.21,161.61 L595.21,161.93 L596.21,159.28 L597.20,152.50 L598.20,146.62 L599.20,143.13 L600.19,139.29 L601.19,129.83 L602.19,126.17 L603.19,120.23 L604.18,123.61 L605.18,136.84 L606.18,151.50 L607.17,162.02 L608.17,171.54 L609.17,177.70 L610.17,163.06 L611.16,145.15 L612.16,129.04 L613.16,127.27 L614.15,122.98 L615.15,121.52 L616.15,119.24 L617.15,125.20 L618.14,143.53 L619.14,157.30 L620.14,171.90 L621.13,163.58 L622.13,158.68 L623.13,151.36 L624.13,138.24 L625.12,129.41 L626.12,126.97 L627.12,125.36 L628.11,127.39 L629.11,145.73 L630.11,150.63 L631.11,152.14 L632.10,155.01 L633.10,155.03 L634.10,149.17 L635.09,143.76 L636.09,145.16 L637.09,144.76 L638.09,140.42 L639.08,142.48 L640.08,137.43 L641.08,135.21 L642.07,133.16 L643.07,130.24 L644.07,136.79 L645.07,145.47 L646.06,150.65 L647.06,156.10 L648.06,158.56 L649.05,154.99 L650.05,152.67 L651.05,142.61 L652.05,133.38 L653.04,127.29 L654.04,123.80 L655.04,126.42 L656.03,133.62 L657.03,146.55 L658.03,153.06 L659.02,159.39 L660.02,164.90 L661.02,161.70 L662.02,154.03 L663.01,142.81 L664.01,138.39 L665.01,130.88 L666.00,124.21 L667.00,118.60 L668.00,124.80 L669.00,139.44 L669.99,141.58 L670.99,160.81 L671.99,170.18 L672.98,166.17 L673.98,158.23 L674.98,146.13 L675.98,140.13 L676.97,130.16 L677.97,122.25 L678.97,115.40 L679.96,119.24 L680.96,149.46 L681.96,152.07 L682.96,161.03 L683.95,165.63 L684.95,160.14 L685.95,150.78 L686.94,142.13 L687.94,135.71 L688.94,128.49 L689.94,120.47 L690.93,123.75 L691.93,142.09 L692.93,142.47 L693.92,148.69 L694.92,168.36 L695.92,166.71 L696.92,156.89 L697.91,145.87 L698.91,137.88 L699.91,132.36 L700.90,128.01 L701.90,119.00 L702.90,124.76 L703.90,140.02 L704.89,147.25 L705.89,159.58 L706.89,166.73 L707.88,161.95 L708.88,152.70 L709.88,145.59 L710.88,139.88 L711.87,134.55 L712.87,129.81 L713.87,118.41 L714.86,124.07 L715.86,142.73 L716.86,145.09 L717.86,152.36 L718.85,165.27 L719.85,160.60 L720.85,151.97 L721.84,144.65 L722.84,140.19 L723.84,137.16 L724.84,133.28 L725.83,135.28 L726.83,131.70 L727.83,131.49 L728.82,140.40 L729.82,147.91 L730.82,152.24 L731.82,155.99 L732.81,153.12 L733.81,146.81 L734.81,141.27 L735.80,143.72 L736.80,142.04 L737.80,135.55 L738.79,136.11 L739.79,141.82 L740.79,147.85 L741.79,149.10 L742.78,148.34 L743.78,145.82 L744.78,145.68 L745.77,140.36 L746.77,139.43 L747.77,138.34 L748.77,131.76 L749.76,123.20 L750.76,132.45 L751.76,146.39 L752.75,158.58 L753.75,147.20 L754.75,155.29 L755.75,162.69 L756.74,156.46 L757.74,151.25 L758.74,143.23 L759.73,134.68 L760.73,128.35 L761.73,124.18 L762.73,112.88 L763.72,120.90 L764.72,146.38 L765.72,158.06 L766.71,168.65 L767.71,175.82 L768.71,170.13 L769.71,154.54 L770.70,134.54 L771.70,126.81 L772.70,124.84 L773.69,116.31 L774.69,105.64 L775.69,133.85 L776.69,158.03 L777.68,153.06 L778.68,165.71 L779.68,174.54 L780.67,168.19 L781.67,152.35 L782.67,132.36 L783.67,122.91 L784.66,118.81 L785.66,118.25 L786.66,120.86 L787.65,146.23 L788.65,156.98 L789.65,157.99 L790.65,166.14 L791.64,161.06 L792.64,149.63 L793.64,145.96 L794.63,140.75 L795.63,139.84 L796.63,128.55 L797.63,117.67 L798.62,119.87 L799.62,147.18 L800.62,143.23 L801.61,141.91 L802.61,165.52 L803.61,165.80 L804.61,158.37 L805.60,146.89 L806.60,142.88 L807.60,137.11 L808.59,137.15 L809.59,131.26 L810.59,132.35 L811.59,121.96 L812.58,137.90 L813.58,147.25 L814.58,146.90 L815.57,155.13 L816.57,156.35 L817.57,146.77 L818.56,147.59 L819.56,147.86 L820.56,146.56 L821.56,143.79 L822.55,143.52 L823.55,143.66 L824.55,148.91 L825.54,137.55 L826.54,126.54 L827.54,124.52 L828.54,126.29 L829.53,135.24 L830.53,156.56 L831.53,168.25 L832.52,161.33 L833.52,137.95 L834.52,138.13 L835.52,148.93 L836.51,142.75 L837.51,136.11 L838.51,127.34 L839.50,130.70 L840.50,130.12 L841.50,153.90 L842.50,155.81 L843.49,157.63 L844.49,154.64 L845.49,150.45 L846.48,148.24 L847.48,145.47 L848.48,141.22 L849.48,136.01 L850.47,135.04 L851.47,130.88 L852.47,129.68 L853.46,127.82 L854.46,140.38 L855.46,139.26 L856.46,156.71 L857.45,162.79 L858.45,159.24 L859.45,158.74 L860.44,153.69 L861.44,154.58 L862.44,148.24 L863.44,137.61 L864.43,114.79 L865.43,95.81 L866.43,111.86 L867.42,134.05 L868.42,165.04 L869.42,162.87 L870.42,170.40 L871.41,176.88 L872.41,160.48 L873.41,137.65 L874.40,120.48 L875.40,126.77 L876.40,125.45 L877.40,119.30 L878.39,128.35 L879.39,141.60 L880.39,149.29 L881.38,162.48 L882.38,182.33 L883.38,180.38 L884.38,167.09 L885.37,150.89 L886.37,131.36 L887.37,118.83 L888.36,108.65 L889.36,80.76 L890.36,101.19 L891.36,148.86 L892.35,167.69 L893.35,174.79 L894.35,174.85 L895.34,176.53 L896.34,168.98 L897.34,149.41 L898.33,127.82 L899.33,115.51 L900.33,107.45 L901.33,108.89 L902.32,123.57 L903.32,143.09 L904.32,160.59 L905.31,181.47 L906.31,181.54 L907.31,165.54 L908.31,143.00 L909.30,133.05 L910.30,127.76 L911.30,117.63 L912.29,117.82 L913.29,124.36 L914.29,148.26 L915.29,152.15 L916.28,160.88 L917.28,171.66 L918.28,165.71 L919.27,152.89 L920.27,140.12 L921.27,129.58 L922.27,127.38 L923.26,119.88 L924.26,116.43 L925.26,137.35 L926.25,145.41 L927.25,143.92 L928.25,166.95 L929.25,172.36 L930.24,159.45 L931.24,148.94 L932.24,142.52 L933.23,131.59 L934.23,126.36 L935.23,125.96 L936.23,123.99 L937.22,134.94 L938.22,139.38 L939.22,148.08 L940.21,164.89 L941.21,169.48 L942.21,152.29 L943.21,148.24 L944.20,147.06 L945.20,142.34 L946.20,134.68 L947.19,122.56 L948.19,122.97 L949.19,131.10 L950.19,141.62 L951.18,149.59 L952.18,156.09 L953.18,157.41 L954.17,153.73 L955.17,149.50 L956.17,147.46 L957.17,143.19 L958.16,138.91 L959.16,139.98 L960.16,136.01 L961.15,133.85 L962.15,132.81 L963.15,126.05 L964.15,134.84 L965.14,155.28 L966.14,161.09 L967.14,151.59 L968.13,157.26 L969.13,160.67 L970.13,151.12 L971.13,139.25 L972.12,137.27 L973.12,136.76 L974.12,129.07 L975.11,124.64 L976.11,113.85 L977.11,119.95 L978.10,139.37 L979.10,167.77 L980.10,178.95 L981.10,180.05 L982.09,165.14 L983.09,148.93 L984.09,142.57 L985.08,119.15 L986.08,111.30 L987.08,111.37 L988.08,120.51 L989.07,134.43 L990.07,157.47 L991.07,156.31 L992.06,162.56 L993.06,165.52 L994.06,160.63 L995.06,150.83 L996.05,137.50 L997.05,137.72 L998.05,129.93 L999.04,113.26 L1000.04,133.44 L1001.04,141.68 L1002.04,153.08 L1003.03,159.09 L1004.03,160.89 L1005.03,157.86 L1006.02,147.34 L1007.02,140.45 L1008.02,132.89 L1009.02,122.65 L1010.01,129.32 L1011.01,118.02 L1012.01,143.14 L1013.00,151.61 L1014.00,159.30 L1015.00,175.89 L1016.00,172.46 L1016.99,151.38 L1017.99,136.92 L1018.99,136.72 L1019.98,122.53 L1020.98,115.19 L1021.98,118.02 L1022.98,126.27 L1023.97,150.35 L1024.97,144.34 L1025.97,166.53 L1026.96,171.11 L1027.96,158.05 L1028.96,150.60 L1029.96,141.74 L1030.95,136.90 L1031.95,124.40 L1032.95,136.92 L1033.94,96.45 L1034.94,141.15 L1035.94,153.81 L1036.94,162.27 L1037.93,157.22 L1038.93,163.01 L1039.93,161.09 L1040.92,152.35 L1041.92,141.92 L1042.92,126.81 L1043.92,123.87 L1044.91,124.39 L1045.91,126.98 L1046.91,150.79 L1047.90,142.23 L1048.90,144.91 L1049.90,156.75 L1050.90,157.33 L1051.89,153.34 L1052.89,151.81 L1053.89,147.02 L1054.88,136.92 L1055.88,139.15 L1056.88,134.09 L1057.87,133.23 L1058.87,129.44 L1059.87,133.53 L1060.87,129.20 L1061.86,154.76 L1062.86,155.20 L1063.86,153.40 L1064.85,148.19 L1065.85,150.24 L1066.85,147.14 L1067.85,144.80 L1068.84,139.56 L1069.84,133.39" stroke="#1466ad" stroke-width="1.2" fill="none"/><text x="30" y="95" font-size="11">7.84</text><text x="30" y="195" font-size="11">-6.43</text><path d="M85.00 75 V195" stroke="#b86" stroke-dasharray="3 4"/><text x="85.00" y="67" font-size="10">L0</text><path d="M175.16 75 V195" stroke="#b86" stroke-dasharray="3 4"/><text x="175.16" y="67" font-size="10">L1</text><path d="M324.13 75 V195" stroke="#b86" stroke-dasharray="3 4"/><text x="324.13" y="67" font-size="10">L2</text><path d="M378.87 75 V195" stroke="#b86" stroke-dasharray="3 4"/><text x="378.87" y="67" font-size="10">L3</text><path d="M444.72 75 V195" stroke="#b86" stroke-dasharray="3 4"/><text x="444.72" y="67" font-size="10">L4</text><path d="M505.55 75 V195" stroke="#b86" stroke-dasharray="3 4"/><text x="505.55" y="67" font-size="10">L5</text><path d="M589.31 75 V195" stroke="#b86" stroke-dasharray="3 4"/><text x="589.31" y="67" font-size="10">L6</text><path d="M636.51 75 V195" stroke="#b86" stroke-dasharray="3 4"/><text x="636.51" y="67" font-size="10">L7</text><path d="M738.56 75 V195" stroke="#b86" stroke-dasharray="3 4"/><text x="738.56" y="67" font-size="10">L8</text><path d="M818.33 75 V195" stroke="#b86" stroke-dasharray="3 4"/><text x="818.33" y="67" font-size="10">L9</text><path d="M853.60 75 V195" stroke="#b86" stroke-dasharray="3 4"/><text x="853.60" y="67" font-size="10">L10</text><path d="M950.05 75 V195" stroke="#b86" stroke-dasharray="3 4"/><text x="950.05" y="67" font-size="10">L11</text><path d="M1055.58 75 V195" stroke="#b86" stroke-dasharray="3 4"/><text x="1055.58" y="67" font-size="10">L12</text><text x="85" y="212" font-size="11">0 s</text><text x="1010" y="212" font-size="11">49.4 s</text><text x="12" y="240" font-family="sans-serif" font-size="12">Magnetic norm (uT)</text><path d="M85 245 V365 H1070" fill="none" stroke="#aab"/><path d="M86.79,341.16 L88.69,338.18 L90.62,335.97 L92.62,332.88 L94.59,330.21 L96.81,329.29 L98.58,327.51 L100.56,326.10 L102.55,326.20 L104.54,325.12 L106.52,324.09 L108.59,323.23 L110.49,321.77 L112.46,319.95 L114.46,317.08 L116.45,312.82 L118.42,311.00 L120.56,309.50 L122.39,310.06 L124.43,309.42 L126.52,309.01 L128.34,308.15 L130.33,309.41 L132.30,310.39 L134.30,311.30 L136.27,311.76 L138.27,312.43 L140.26,312.65 L142.23,312.46 L144.23,312.23 L146.24,312.37 L148.30,312.12 L150.17,310.19 L152.15,309.74 L154.14,309.56 L156.31,309.85 L158.11,309.02 L160.10,308.37 L162.44,308.15 L164.07,308.30 L166.05,308.17 L168.08,308.79 L170.01,308.11 L172.01,307.89 L173.98,308.08 L175.98,307.75 L177.95,307.50 L179.95,307.62 L181.94,307.28 L183.91,307.63 L185.91,307.90 L188.24,307.61 L189.88,306.75 L191.93,306.21 L193.89,304.84 L195.82,303.17 L197.81,302.60 L199.85,302.13 L201.78,302.22 L203.76,301.74 L205.75,300.42 L207.73,299.10 L209.80,299.25 L211.69,298.87 L213.73,299.73 L215.66,300.98 L217.76,303.32 L219.65,305.45 L221.63,309.48 L223.66,313.52 L225.59,316.52 L227.59,319.80 L229.56,322.70 L231.56,326.93 L233.55,328.59 L235.71,331.10 L237.50,335.88 L239.75,338.74 L241.47,341.81 L243.56,347.17 L245.44,349.82 L247.67,354.68 L249.78,357.88 L251.40,360.52 L253.37,361.26 L255.37,362.90 L257.38,365.00 L259.42,364.41 L261.51,364.37 L263.31,362.78 L265.32,361.87 L267.27,360.43 L269.29,360.23 L271.34,360.15 L273.40,358.91 L275.35,359.16 L277.25,358.11 L279.44,355.90 L281.21,353.43 L283.27,351.20 L285.14,349.51 L287.12,348.21 L289.11,346.58 L291.35,346.41 L293.10,345.43 L295.05,345.00 L297.05,344.13 L299.02,343.99 L301.02,343.82 L303.03,344.14 L304.99,343.98 L306.98,344.57 L308.95,345.52 L310.95,346.64 L312.96,347.61 L314.92,346.84 L316.99,346.12 L318.89,345.37 L320.86,345.96 L322.93,346.46 L325.01,347.00 L326.82,347.76 L328.92,347.37 L330.79,347.93 L332.79,348.06 L334.82,347.94 L336.87,348.12 L338.77,348.19 L340.70,347.73 L342.70,344.79 L344.67,342.30 L346.85,340.27 L348.70,339.05 L350.63,336.78 L352.87,331.70 L354.60,327.64 L356.64,325.19 L358.57,323.48 L360.61,322.14 L362.54,321.58 L364.53,322.47 L366.51,321.22 L368.56,321.01 L370.54,320.00 L372.57,319.46 L374.45,320.59 L376.48,320.32 L379.41,322.19 L380.41,321.77 L382.40,321.95 L384.44,322.76 L386.49,321.84 L388.35,321.36 L390.38,320.81 L392.43,316.81 L394.31,315.57 L396.28,313.69 L398.28,312.15 L400.25,310.89 L402.27,308.46 L404.26,307.24 L406.21,305.86 L408.21,305.63 L410.46,307.06 L412.22,306.76 L414.15,305.15 L416.19,304.90 L418.20,304.76 L420.09,304.07 L422.11,305.68 L424.10,308.99 L426.06,312.81 L428.13,314.78 L430.03,318.91 L432.02,322.08 L434.37,323.99 L435.99,326.85 L438.00,327.26 L439.98,329.41 L442.03,331.65 L443.93,333.50 L445.94,335.07 L447.89,337.14 L449.87,337.48 L451.86,338.18 L453.84,337.56 L455.89,336.86 L457.81,335.22 L459.80,333.92 L461.79,332.07 L463.77,329.53 L465.76,327.11 L467.74,325.01 L469.73,321.25 L471.88,317.68 L473.70,314.77 L475.85,314.04 L477.67,312.89 L479.64,311.60 L481.64,310.56 L483.65,309.73 L485.60,305.47 L487.58,304.96 L489.85,303.50 L491.55,303.21 L493.54,303.43 L495.52,304.20 L497.55,304.89 L499.52,305.96 L501.48,305.28 L503.49,305.17 L505.45,305.42 L507.44,305.56 L509.42,305.78 L511.41,305.98 L513.38,307.04 L515.38,308.22 L517.45,307.86 L519.35,308.52 L521.32,308.71 L523.36,308.28 L525.29,307.88 L527.60,307.15 L529.26,307.60 L531.25,308.33 L533.23,309.51 L535.26,310.28 L537.22,311.34 L539.25,311.41 L541.16,312.32 L543.28,312.61 L545.31,312.33 L547.21,310.61 L549.12,309.31 L551.10,307.82 L553.09,307.13 L555.14,306.62 L557.06,305.65 L559.03,306.64 L561.03,306.82 L563.00,307.05 L565.00,307.74 L567.11,309.34 L568.96,310.89 L570.94,311.39 L572.93,312.88 L574.93,315.10 L577.02,317.98 L578.92,321.29 L580.87,324.33 L582.92,326.64 L584.84,327.74 L586.83,328.80 L588.81,329.03 L590.94,328.83 L592.78,328.44 L595.13,326.76 L596.74,324.53 L598.76,323.27 L600.71,321.30 L602.75,319.61 L604.86,317.51 L606.68,315.21 L608.65,312.89 L610.64,312.45 L612.64,312.96 L614.61,314.43 L616.61,315.29 L618.58,313.77 L620.62,314.54 L622.59,314.43 L624.56,314.82 L626.52,316.04 L628.59,314.87 L630.49,314.73 L632.50,315.07 L634.46,316.08 L636.45,317.24 L638.42,316.58 L640.42,317.54 L642.41,317.90 L644.67,318.59 L646.36,320.09 L648.38,320.73 L650.35,321.61 L652.32,321.82 L654.32,322.89 L656.29,323.70 L658.29,324.54 L660.26,326.03 L662.26,328.10 L664.23,330.48 L666.22,331.80 L668.34,333.08 L670.19,333.47 L672.17,331.46 L674.16,332.26 L676.18,332.70 L678.13,333.65 L680.10,334.33 L682.10,335.87 L684.17,336.74 L686.07,337.29 L688.06,337.83 L690.04,337.72 L692.11,339.20 L694.00,339.54 L696.00,338.39 L697.99,339.01 L699.97,339.10 L701.94,338.60 L703.98,338.62 L705.91,338.82 L707.90,338.01 L709.88,336.69 L711.87,334.90 L713.85,334.30 L716.10,333.05 L717.82,332.67 L719.81,331.46 L721.78,329.44 L723.78,328.07 L725.79,326.80 L727.75,322.63 L729.74,319.39 L731.72,316.63 L733.71,315.21 L735.68,314.44 L737.68,313.32 L739.65,311.53 L741.65,309.68 L743.62,307.59 L745.62,304.76 L747.61,300.34 L749.58,297.10 L752.02,294.40 L753.55,289.92 L755.59,287.42 L757.52,283.76 L759.50,280.04 L761.49,275.76 L763.86,272.29 L765.46,268.49 L767.45,267.77 L769.47,266.78 L771.42,266.16 L773.40,268.75 L775.39,274.38 L777.36,276.59 L779.36,279.46 L781.33,283.10 L783.33,285.67 L785.30,292.27 L787.30,297.40 L789.27,302.05 L791.26,303.92 L793.26,305.69 L795.55,308.97 L797.23,313.35 L799.32,315.73 L801.21,317.91 L803.17,318.15 L805.16,317.22 L807.52,318.85 L809.13,320.15 L811.31,321.63 L813.10,319.30 L815.08,321.36 L817.11,322.26 L819.04,322.38 L821.08,324.30 L823.01,325.50 L825.01,325.69 L826.98,325.51 L829.27,324.83 L831.05,323.55 L833.10,321.71 L835.18,320.21 L836.91,321.37 L838.89,322.39 L840.88,321.88 L842.85,322.85 L844.85,323.17 L846.86,322.54 L848.82,321.97 L850.89,321.72 L852.85,318.71 L854.88,318.38 L856.75,318.91 L858.79,318.18 L860.72,316.59 L862.90,314.97 L864.69,314.59 L866.95,313.78 L868.70,311.81 L870.65,309.13 L872.63,306.43 L874.62,302.85 L876.60,298.27 L878.59,295.23 L880.57,292.00 L882.66,289.34 L884.61,284.66 L886.53,281.05 L888.52,271.53 L890.62,265.09 L892.73,259.96 L894.47,255.11 L896.50,252.11 L898.43,250.00 L900.43,253.65 L902.66,257.52 L904.40,261.19 L906.43,264.05 L908.49,267.14 L910.44,272.40 L912.33,277.01 L914.37,282.33 L916.30,285.72 L918.30,289.85 L920.27,294.23 L922.27,299.12 L924.24,304.37 L926.23,307.68 L928.21,309.81 L930.24,313.37 L932.18,316.29 L934.17,319.12 L936.27,324.36 L938.22,327.59 L940.17,330.03 L942.17,331.78 L944.34,333.34 L946.08,337.26 L948.07,338.42 L950.56,341.34 L952.02,341.69 L954.01,342.84 L956.01,341.42 L957.98,342.34 L960.18,342.83 L961.95,342.70 L963.95,341.70 L966.04,345.03 L967.95,344.66 L969.93,346.92 L971.90,348.53 L973.86,349.84 L975.85,350.22 L977.83,353.82 L979.84,353.16 L981.79,350.65 L983.79,350.19 L985.76,348.08 L987.76,348.13 L989.73,347.31 L991.73,345.38 L993.72,344.35 L995.69,340.29 L997.69,336.80 L999.66,333.15 L1001.66,330.34 L1003.63,331.93 L1005.65,328.50 L1007.60,324.89 L1009.59,319.01 L1011.63,316.07 L1013.60,310.36 L1015.62,305.54 L1017.53,302.08 L1019.76,300.33 L1021.50,297.86 L1023.47,297.94 L1025.47,297.83 L1027.44,297.21 L1029.44,298.51 L1031.47,298.86 L1033.51,300.22 L1035.46,300.46 L1037.59,302.32 L1039.75,302.91 L1041.36,303.21 L1043.38,302.44 L1045.57,301.68 L1047.31,300.69 L1049.38,300.84 L1051.33,302.69 L1053.29,302.93 L1056.12,301.76 L1057.30,303.03 L1059.25,303.46 L1061.46,305.04 L1063.18,305.52 L1065.23,305.43 L1067.15,305.36 L1069.12,304.52" stroke="#1466ad" stroke-width="1.2" fill="none"/><text x="30" y="265" font-size="11">72.16</text><text x="30" y="365" font-size="11">29.43</text><path d="M85.00 245 V365" stroke="#b86" stroke-dasharray="3 4"/><path d="M175.16 245 V365" stroke="#b86" stroke-dasharray="3 4"/><path d="M324.13 245 V365" stroke="#b86" stroke-dasharray="3 4"/><path d="M378.87 245 V365" stroke="#b86" stroke-dasharray="3 4"/><path d="M444.72 245 V365" stroke="#b86" stroke-dasharray="3 4"/><path d="M505.55 245 V365" stroke="#b86" stroke-dasharray="3 4"/><path d="M589.31 245 V365" stroke="#b86" stroke-dasharray="3 4"/><path d="M636.51 245 V365" stroke="#b86" stroke-dasharray="3 4"/><path d="M738.56 245 V365" stroke="#b86" stroke-dasharray="3 4"/><path d="M818.33 245 V365" stroke="#b86" stroke-dasharray="3 4"/><path d="M853.60 245 V365" stroke="#b86" stroke-dasharray="3 4"/><path d="M950.05 245 V365" stroke="#b86" stroke-dasharray="3 4"/><path d="M1055.58 245 V365" stroke="#b86" stroke-dasharray="3 4"/><text x="85" y="382" font-size="11">0 s</text><text x="1010" y="382" font-size="11">49.4 s</text><text x="12" y="410" font-family="sans-serif" font-size="12">Pressure (hPa)</text><path d="M85 415 V535 H1070" fill="none" stroke="#aab"/><path d="M106.74,420.00 L126.78,429.63 L147.12,439.26 L167.30,458.90 L187.46,479.11 L217.68,479.11 L239.18,481.75 L260.67,478.73 L282.11,477.22 L303.81,467.96 L325.47,467.96 L346.51,477.22 L368.14,478.35 L389.62,483.64 L411.04,494.78 L432.76,494.78 L454.08,494.78 L475.51,495.53 L497.15,495.91 L518.59,497.61 L540.01,508.00 L561.83,513.28 L583.10,513.66 L604.86,519.52 L626.40,519.52 L647.64,524.24 L669.04,525.18 L690.65,528.77 L712.81,528.77 L733.53,528.77 L755.17,535.00 L776.61,535.00 L798.04,532.55 L819.88,528.20 L841.12,524.24 L862.54,518.38 L884.18,515.93 L905.65,510.07 L927.11,507.05 L948.95,507.05 L970.13,513.85 L991.57,513.85 L1013.18,515.93 L1035.02,524.80 L1056.38,524.80" stroke="#1466ad" stroke-width="1.2" fill="none"/><text x="30" y="435" font-size="11">1004.98</text><text x="30" y="535" font-size="11">1004.93</text><path d="M85.00 415 V535" stroke="#b86" stroke-dasharray="3 4"/><path d="M175.16 415 V535" stroke="#b86" stroke-dasharray="3 4"/><path d="M324.13 415 V535" stroke="#b86" stroke-dasharray="3 4"/><path d="M378.87 415 V535" stroke="#b86" stroke-dasharray="3 4"/><path d="M444.72 415 V535" stroke="#b86" stroke-dasharray="3 4"/><path d="M505.55 415 V535" stroke="#b86" stroke-dasharray="3 4"/><path d="M589.31 415 V535" stroke="#b86" stroke-dasharray="3 4"/><path d="M636.51 415 V535" stroke="#b86" stroke-dasharray="3 4"/><path d="M738.56 415 V535" stroke="#b86" stroke-dasharray="3 4"/><path d="M818.33 415 V535" stroke="#b86" stroke-dasharray="3 4"/><path d="M853.60 415 V535" stroke="#b86" stroke-dasharray="3 4"/><path d="M950.05 415 V535" stroke="#b86" stroke-dasharray="3 4"/><path d="M1055.58 415 V535" stroke="#b86" stroke-dasharray="3 4"/><text x="85" y="552" font-size="11">0 s</text><text x="1010" y="552" font-size="11">49.4 s</text><text x="12" y="580" font-family="sans-serif" font-size="12">Device orientation (deg)</text><path d="M85 585 V705 H1070" fill="none" stroke="#aab"/><path d="M86.81,632.67 L87.81,632.76 L88.81,632.81 L89.81,632.83 L90.80,632.82 L91.80,632.76 L92.80,633.03 L93.79,633.16 L94.79,633.16 L95.79,633.07 L96.79,632.98 M162.60,604.63 L163.59,604.46 L164.59,604.26 L165.59,604.06 L166.58,604.06 L167.58,604.06 L168.58,603.87 L169.58,603.68 L170.57,603.50 M187.52,608.61 L188.52,609.48 L189.52,610.29 L190.52,611.04 L191.51,611.64 L192.51,612.07 L193.51,613.06 L194.50,613.74 L195.50,614.03 L196.50,613.90 L197.50,613.33 L198.49,612.34 L199.49,611.10 L200.49,609.62 L201.48,607.93 L202.48,606.21 L203.48,604.58 L204.48,603.08 L205.47,601.78 L206.47,600.77 L207.47,600.02 L208.46,599.71 L209.46,599.80 L210.46,600.16 L211.46,600.74 L212.45,601.50 L213.45,602.33 L214.45,603.17 L215.44,603.97 L216.44,604.71 L217.44,605.39 L218.44,606.01 L219.43,606.41 L220.43,606.62 L221.43,606.58 L222.42,606.27 L223.42,606.22 L224.42,606.11 L225.42,605.91 L226.41,605.69 L227.41,605.43 M244.36,603.37 L245.36,601.98 L246.35,600.53 L247.35,599.21 L248.35,598.20 L249.35,597.42 L250.34,595.71 L251.34,594.31 L252.34,593.38 L253.33,592.95 L254.33,593.08 L255.33,593.81 L256.33,595.05 L257.32,596.78 L258.32,598.73 L259.32,600.69 L260.31,602.60 L261.31,604.40 L262.31,605.96 L263.31,607.17 L264.30,607.90 L265.30,608.05 L266.30,607.57 L267.29,606.46 L268.29,604.80 L269.29,602.80 L270.29,600.57 L271.28,598.41 L272.28,596.41 L273.28,594.62 L274.27,593.11 L275.27,592.06 L276.27,591.47 L277.27,591.56 L278.26,592.39 L279.26,593.80 L280.26,595.61 L281.25,597.60 L282.25,599.49 L283.25,601.23 L284.25,602.80 L285.24,604.06 L286.24,604.98 L287.24,605.45 L288.23,605.06 L289.23,604.02 L290.23,602.48 L291.23,600.77 L292.22,599.12 L293.22,597.58 L294.22,596.22 L295.21,594.93 L296.21,593.80 L297.21,592.86 L298.21,592.34 L299.20,592.46 L300.20,593.01 L301.20,593.87 L302.19,594.86 L303.19,595.81 L304.19,596.72 L305.19,597.51 L306.18,598.30 L307.18,599.11 L308.18,599.83 L309.17,600.28 L310.17,600.48 L311.17,600.36 L312.17,600.07 L313.16,599.65 L314.16,599.15 L315.16,598.59 L316.15,598.05 L317.15,597.54 L318.15,596.99 L319.14,596.52 L320.14,596.18 L321.14,595.97 L322.14,595.92 L323.13,596.01 L324.13,596.19 L325.13,596.41 L326.12,596.69 L327.12,596.92 L328.12,597.11 L329.12,597.27 L330.11,597.42 L331.11,597.57 L332.11,597.73 L333.10,597.91 L334.10,598.06 L335.10,598.18 L336.10,598.25 L337.09,598.29 L338.09,598.29 L339.09,598.21 L340.08,598.08 L341.08,597.95 L342.08,597.82 L343.08,597.70 L344.07,597.47 L345.07,597.20 L346.07,597.05 L347.06,597.03 L348.06,597.29 L349.06,597.77 L350.06,598.50 L351.05,599.54 L352.05,600.71 L353.05,601.92 L354.04,603.15 L355.04,604.53 L356.04,605.95 L357.04,607.25 L358.03,608.42 L359.03,609.29 L360.03,609.85 L361.02,610.14 L362.02,610.07 L363.02,609.75 L364.02,609.30 L365.01,608.74 L366.01,608.14 L367.01,607.58 L368.00,607.08 L369.00,606.63 L370.00,606.27 L371.00,606.16 L371.99,606.28 L372.99,606.63 L373.99,607.22 L374.98,608.09 L375.98,609.17 L376.98,610.36 L377.98,611.63 L378.97,612.95 L379.97,614.30 L380.97,615.74 L381.96,617.24 L382.96,618.55 L383.96,619.66 L384.96,620.47 L385.95,620.75 L386.95,620.54 L387.95,619.87 L388.94,618.86 L389.94,617.68 L390.94,616.44 L391.94,615.10 L392.93,613.60 L393.93,612.18 L394.93,610.89 L395.92,609.93 L396.92,609.50 L397.92,609.55 L398.91,610.01 L399.91,610.68 L400.91,611.41 L401.91,612.12 L402.90,612.77 L403.90,613.37 L404.90,613.78 L405.89,614.01 L406.89,613.99 L407.89,613.61 L408.89,612.87 L409.88,611.81 L410.88,610.56 L411.88,609.35 L412.87,608.19 L413.87,607.07 L414.87,606.00 L415.87,605.09 L416.86,604.31 L417.86,603.72 L418.86,603.44 L419.85,603.58 L420.85,604.09 L421.85,604.84 L422.85,605.60 L423.84,606.37 L424.84,607.15 L425.84,607.89 L426.83,608.57 L427.83,609.20 L428.83,609.58 L429.83,609.57 L430.82,609.21 L431.82,608.64 L432.82,607.98 L433.81,607.32 L434.81,606.66 L435.81,606.00 L436.81,605.38 L437.80,604.83 L438.80,604.36 L439.80,604.07 L440.79,604.06 L441.79,604.31 L442.79,604.73 L443.79,605.27 L444.78,605.85 L445.78,606.46 L446.78,607.13 L447.77,607.85 L448.77,608.58 L449.77,609.30 L450.77,610.03 L451.76,610.46 L452.76,610.81 L453.76,611.13 L454.75,611.48 L455.75,611.83 M482.67,622.63 L483.67,622.40 L484.67,622.06 L485.66,621.60 L486.66,621.25 L487.66,620.97 L488.66,620.53 L489.65,620.12 L490.65,619.75 L491.65,619.40 L492.64,619.09 L493.64,618.81 L494.64,618.65 L495.64,618.68 L496.63,618.92 L497.63,619.20 L498.63,619.53 L499.62,619.89 L500.62,620.29 L501.62,620.73 L502.62,621.23 L503.61,621.75 L504.61,622.30 L505.61,622.86 L506.60,623.43 L507.60,623.99 L508.60,624.53 L509.60,625.05 L510.59,625.57 L511.59,626.08 L512.59,626.55 L513.58,626.93 L514.58,627.25 L515.58,627.51 L516.58,627.71 L517.57,627.77 L518.57,627.71 L519.57,627.58 L520.56,627.38 L521.56,627.08 L522.56,626.64 L523.56,626.09 L524.55,625.48 L525.55,624.91 L526.55,624.39 L527.54,623.91 L528.54,623.54 L529.54,623.31 L530.54,623.23 L531.53,623.25 L532.53,623.38 L533.53,623.64 L534.52,623.96 L535.52,624.32 L536.52,624.62 L537.52,624.84 L538.51,624.96 L539.51,624.91 L540.51,624.62 L541.50,623.93 L542.50,622.91 L543.50,621.63 L544.50,620.21 L545.49,618.84 L546.49,617.52 L547.49,616.27 L548.48,615.10 L549.48,614.08 L550.48,613.40 L551.48,612.96 L552.47,612.88 L553.47,613.21 L554.47,613.83 L555.46,614.62 L556.46,615.44 L557.46,616.22 L558.45,616.96 L559.45,617.67 L560.45,618.27 L561.45,618.65 L562.44,618.95 L563.44,619.15 L564.44,619.19 L565.43,619.08 L566.43,618.77 L567.43,618.31 L568.43,617.85 L569.42,617.47 L570.42,617.17 L571.42,617.01 L572.41,617.00 L573.41,617.16 L574.41,617.47 L575.41,617.84 L576.40,618.30 L577.40,618.96 L578.40,619.77 L579.39,620.63 L580.39,621.45 L581.39,622.22 L582.39,622.89 L583.38,623.45 L584.38,623.87 L585.38,624.18 L586.37,624.44 L587.37,624.62 L588.37,624.75 L589.37,624.81 L590.36,624.72 L591.36,624.51 L592.36,624.20 L593.35,623.81 L594.35,623.38 L595.35,622.91 L596.35,622.39 L597.34,621.86 L598.34,621.40 L599.34,621.00 L600.33,620.70 L601.33,620.61 L602.33,620.70 L603.33,620.98 L604.32,621.51 L605.32,622.14 L606.32,622.84 L607.31,623.56 L608.31,624.29 L609.31,624.96 L610.31,625.58 L611.30,626.11 L612.30,626.51 L613.30,626.83 L614.29,627.00 L615.29,626.85 L616.29,626.39 L617.29,625.73 L618.28,624.94 L619.28,624.08 L620.28,623.28 L621.27,622.52 L622.27,621.81 L623.27,621.14 L624.27,620.57 L625.26,620.14 L626.26,619.91 L627.26,619.99 L628.25,620.29 L629.25,620.77 L630.25,621.37 L631.25,621.95 L632.24,622.51 L633.24,623.05 L634.24,623.56 L635.23,624.02 L636.23,624.39 L637.23,624.69 L638.22,624.93 L639.22,625.09 L640.22,625.17 L641.22,625.17 L642.21,625.13 L643.21,624.95 L644.21,624.94 L645.20,624.92 L646.20,624.88 L647.20,624.80 L648.20,624.68 M676.12,626.69 L677.11,627.23 L678.11,627.78 L679.11,628.33 L680.10,628.84 L681.10,629.31 L682.10,630.18 L683.10,631.01 L684.09,631.82 L685.09,632.59 L686.09,633.24 L687.08,633.61 L688.08,633.96 L689.08,634.24 L690.08,634.46 L691.07,634.64 M718.99,635.67 L719.99,635.67 L720.99,635.67 M732.95,636.52 L733.95,636.36 L734.95,636.36 L735.94,636.36 L736.94,636.36 L737.94,636.36 L738.93,636.11 M806.74,624.06 L807.74,624.41 L808.73,624.83 L809.73,625.23 L810.73,625.64 L811.72,626.04 L812.72,626.69 L813.72,627.36 L814.72,628.06 L815.71,628.81 L816.71,629.58 L817.71,630.31 L818.70,630.92 L819.70,631.41 L820.70,631.82 L821.70,632.14 L822.69,632.37 L823.69,632.55 L824.69,632.66 L825.68,632.70 L826.68,632.47 L827.68,631.95 L828.68,631.11 L829.67,630.13 L830.67,629.13 L831.67,628.12 L832.66,627.06 L833.66,625.94 L834.66,624.76 L835.66,623.58 L836.65,622.48 L837.65,621.60 L838.65,620.97 L839.64,620.59 L840.64,620.32 L841.64,620.03 L842.64,619.69 L843.63,619.32 L844.63,618.93 L845.63,618.44 L846.62,617.80 L847.62,616.93 L848.62,615.94 L849.62,614.91 L850.61,613.88 L851.61,612.86 L852.61,611.66 L853.60,610.36 L854.60,608.92 L855.60,607.49 L856.60,606.14 L857.59,604.93 L858.59,603.83 L859.59,602.74 L860.58,601.57 L861.58,600.45 L862.58,599.44 L863.58,598.76 L864.57,598.35 L865.57,598.24 L866.57,598.31 L867.56,598.47 L868.56,598.71 L869.56,599.03 L870.56,599.45 L871.55,599.96 L872.55,600.43 L873.55,600.80 L874.54,601.01 L875.54,601.05 L876.54,600.86 L877.53,600.50 L878.53,599.99 L879.53,599.24 L880.53,598.23 L881.52,597.19 L882.52,596.23 L883.52,595.38 L884.51,594.65 L885.51,594.09 L886.51,593.89 L887.51,594.13 L888.50,594.68 L889.50,595.48 L890.50,596.56 L891.49,597.90 L892.49,599.15 L893.49,600.16 L894.49,600.97 L895.48,601.65 L896.48,602.17 L897.48,602.33 L898.47,602.06 L899.47,601.39 L900.47,600.36 L901.47,599.09 L902.46,597.67 L903.46,596.15 L904.46,594.75 L905.45,593.51 L906.45,592.35 L907.45,591.31 L908.45,590.54 L909.44,590.12 L910.44,590.00 L911.44,590.21 L912.43,590.74 L913.43,591.50 L914.43,592.42 L915.43,593.38 L916.42,594.29 L917.42,595.13 L918.42,595.89 L919.41,596.44 L920.41,596.78 L921.41,596.99 L922.41,596.98 L923.40,596.76 L924.40,596.38 L925.40,595.92 L926.39,595.41 L927.39,594.95 L928.39,594.54 L929.39,594.19 L930.38,593.90 L931.38,593.69 L932.38,593.63 L933.37,593.79 L934.37,594.05 L935.37,594.52 L936.37,595.17 L937.36,595.95 L938.36,596.76 L939.36,597.17 L940.35,597.61 L941.35,598.10 L942.35,598.63 L943.35,599.07 M957.30,598.98 L958.30,598.92 L959.30,598.92 L960.30,599.02 L961.29,599.14 L962.29,599.19 L963.29,599.21 L964.28,599.40 L965.28,599.77 L966.28,600.32 L967.28,600.93 L968.27,601.47 L969.27,601.97 L970.27,602.40 L971.26,602.69 L972.26,602.92 L973.26,603.10 L974.26,603.04 L975.25,602.60 L976.25,601.85 L977.25,600.89 L978.24,599.98 L979.24,599.16 L980.24,598.40 L981.24,597.65 L982.23,596.92 L983.23,596.20 L984.23,595.55 L985.22,595.01 L986.22,594.73 L987.22,594.75 L988.22,594.82 L989.21,594.84 L990.21,594.78 L991.21,594.66 L992.20,594.54 M1004.17,593.40 L1005.17,593.50 L1006.16,593.68 L1007.16,593.93 L1008.16,594.27 L1009.16,594.76 L1010.15,595.45 L1011.15,596.55 L1012.15,597.77 L1013.14,599.02 L1014.14,600.30 L1015.14,601.63 L1016.14,602.93 L1017.13,604.18 L1018.13,605.35 L1019.13,606.42 L1020.12,607.33 L1021.12,608.05 L1022.12,608.57 L1023.12,609.04 L1024.11,609.50 L1025.11,610.04 L1026.11,610.74 L1027.10,611.66 L1028.10,612.71 L1029.10,613.97 L1030.10,615.56 L1031.09,617.56 L1032.09,619.81 L1033.09,622.33 L1034.08,625.10 L1035.08,628.08 L1036.08,631.27 L1037.07,634.51 L1038.07,637.70 L1039.07,640.91 L1040.07,644.03 L1041.06,646.98 L1042.06,649.72 L1043.06,652.39 L1044.05,654.93 L1045.05,657.42 L1046.05,659.76 L1047.05,661.86 L1048.04,663.85 L1049.04,665.93 L1050.04,668.10 L1051.03,670.32 L1052.03,672.64 L1053.03,674.93 L1054.03,677.17 L1055.02,679.43 L1056.02,681.63 L1057.02,683.99 L1058.01,686.49 L1059.01,689.04 L1060.01,691.49 L1061.01,693.79 L1062.00,695.98 L1063.00,698.02 L1064.00,699.92 L1064.99,700.99 L1065.99,702.06 L1066.99,703.14 L1067.99,704.14 L1068.98,705.00" stroke="#1466ad" stroke-width="1.2" fill="none"/><text x="30" y="605" font-size="11">217.05</text><text x="30" y="705" font-size="11">109.21</text><path d="M85.00 585 V705" stroke="#b86" stroke-dasharray="3 4"/><path d="M175.16 585 V705" stroke="#b86" stroke-dasharray="3 4"/><path d="M324.13 585 V705" stroke="#b86" stroke-dasharray="3 4"/><path d="M378.87 585 V705" stroke="#b86" stroke-dasharray="3 4"/><path d="M444.72 585 V705" stroke="#b86" stroke-dasharray="3 4"/><path d="M505.55 585 V705" stroke="#b86" stroke-dasharray="3 4"/><path d="M589.31 585 V705" stroke="#b86" stroke-dasharray="3 4"/><path d="M636.51 585 V705" stroke="#b86" stroke-dasharray="3 4"/><path d="M738.56 585 V705" stroke="#b86" stroke-dasharray="3 4"/><path d="M818.33 585 V705" stroke="#b86" stroke-dasharray="3 4"/><path d="M853.60 585 V705" stroke="#b86" stroke-dasharray="3 4"/><path d="M950.05 585 V705" stroke="#b86" stroke-dasharray="3 4"/><path d="M1055.58 585 V705" stroke="#b86" stroke-dasharray="3 4"/><text x="85" y="722" font-size="11">0 s</text><text x="1010" y="722" font-size="11">49.4 s</text><text x="12" y="750" font-family="sans-serif" font-size="12">Gyroscope norm (rad/s)</text><path d="M85 755 V875 H1070" fill="none" stroke="#aab"/><path d="M86.68,847.64 L87.25,853.95 L88.23,855.13 L89.23,863.50 L90.22,863.01 L91.22,864.98 L92.20,871.08 L93.46,872.17 L94.19,867.47 L95.19,861.49 L96.19,862.06 L97.16,865.71 L98.16,871.68 L99.16,863.21 L100.16,872.68 L101.13,859.57 L102.13,859.53 L103.13,865.01 L104.12,867.71 L105.36,865.94 L106.10,870.75 L107.36,864.96 L108.11,871.62 L109.07,863.56 L110.07,849.56 L111.06,835.05 L112.06,868.60 L113.04,869.04 L114.04,847.06 L115.03,841.58 L116.03,832.76 L117.29,836.19 L118.32,851.11 L119.00,873.90 L120.12,850.42 L121.00,844.52 L121.97,844.10 L122.99,853.41 L123.97,842.28 L124.96,837.29 L126.10,829.49 L127.14,818.98 L127.94,809.00 L128.93,802.36 L129.91,811.18 L130.91,815.39 L131.90,760.00 L133.36,789.25 L133.88,822.60 L134.88,840.90 L135.87,808.93 L137.13,823.49 L137.85,813.21 L138.84,822.39 L139.84,825.32 L140.96,847.08 L141.84,844.39 L142.83,834.93 L143.81,849.21 L144.81,865.16 L145.80,867.56 L146.96,869.47 L147.90,859.04 L148.80,852.40 L149.77,857.09 L150.75,860.34 L151.75,851.76 L152.74,860.89 L153.74,871.96 L154.74,863.57 L156.31,847.41 L156.87,837.43 L157.71,862.28 L158.71,849.69 L159.68,863.65 L160.68,858.52 L161.68,863.01 L162.88,861.43 L163.65,867.99 L164.65,866.68 L165.69,865.28 L166.64,873.73 L167.74,865.84 L168.80,867.65 L169.62,868.91 L170.61,864.44 L171.59,859.25 L172.59,861.91 L173.58,854.62 L174.70,872.68 L175.60,870.45 L176.56,868.90 L177.55,869.84 L178.55,870.77 L179.55,873.16 L181.18,872.83 L181.52,871.84 L182.62,875.00 L183.52,872.76 L184.49,871.65 L185.49,856.37 L186.49,837.55 L187.82,846.84 L188.66,856.01 L189.50,837.13 L190.46,834.24 L191.57,832.06 L192.59,835.64 L193.43,843.73 L194.42,830.94 L195.42,845.39 L196.40,836.14 L197.40,844.88 L198.61,849.76 L199.43,830.29 L200.69,836.64 L201.40,829.62 L202.56,822.81 L203.46,841.98 L204.36,836.03 L205.43,818.62 L206.41,846.43 L207.33,860.49 L208.32,862.99 L209.44,861.36 L210.30,868.05 L211.54,846.61 L212.29,814.51 L213.27,846.32 L214.45,848.90 L215.32,848.58 L216.28,853.50 L217.64,861.67 L218.24,864.79 L219.23,836.40 L220.35,838.36 L221.23,852.38 L222.20,857.03 L223.20,869.93 L224.20,843.72 L225.20,865.66 L226.37,844.77 L227.23,848.62 L228.17,850.46 L229.16,853.26 L230.14,868.98 L231.14,864.57 L232.14,828.89 L233.13,810.17 L234.13,823.04 L235.71,849.88 L236.20,839.57 L237.10,845.47 L238.08,854.36 L239.08,859.86 L240.07,858.68 L241.07,854.62 L242.11,853.13 L243.16,855.05 L244.06,842.60 L245.04,824.92 L246.41,828.89 L247.25,831.49 L248.11,828.90 L249.37,829.64 L250.20,835.29 L251.04,823.50 L251.98,823.69 L252.98,852.25 L253.97,843.74 L254.95,850.73 L256.21,841.33 L256.94,834.41 L258.10,836.02 L259.02,808.08 L260.19,809.71 L261.09,826.18 L262.07,838.53 L262.95,863.02 L263.88,863.13 L264.88,853.11 L265.88,840.79 L267.11,839.25 L268.41,844.45 L269.21,829.65 L269.95,821.84 L270.92,820.83 L272.12,813.80 L272.96,813.76 L273.90,824.82 L275.13,847.62 L275.81,844.58 L276.79,841.46 L278.02,844.28 L279.04,828.27 L279.86,850.71 L280.76,826.10 L281.99,786.58 L282.89,806.45 L283.81,830.09 L284.72,837.24 L285.80,854.59 L286.72,863.03 L287.72,833.23 L288.69,821.14 L289.95,846.36 L290.97,841.88 L291.78,791.79 L293.10,774.36 L293.96,807.41 L294.82,826.29 L295.67,842.41 L296.65,858.56 L297.89,836.58 L298.66,844.76 L299.62,841.70 L300.62,846.41 L301.74,834.18 L302.61,840.87 L303.75,850.43 L304.65,848.23 L305.56,863.66 L306.56,862.37 L307.76,868.51 L308.56,867.33 L309.53,866.00 L310.53,872.97 L311.95,852.16 L312.52,862.29 L313.74,841.99 L314.50,860.75 L315.50,848.38 L316.57,855.35 L317.47,854.64 L318.47,865.75 L319.46,869.44 L320.50,868.23 L321.46,853.85 L322.93,844.05 L323.69,858.63 L324.65,871.60 L325.55,850.67 L326.40,869.10 L327.40,866.47 L328.48,862.07 L329.40,866.46 L330.37,869.24 L331.37,863.78 L332.37,855.82 L333.36,864.81 L334.82,861.48 L335.34,869.34 L336.47,865.70 L337.41,861.58 L338.33,845.92 L339.31,853.89 L340.30,849.35 L341.58,848.08 L342.28,849.96 L343.49,857.45 L344.27,858.32 L345.31,852.62 L346.27,867.05 L347.24,853.59 L348.24,832.24 L349.24,812.87 L350.28,835.28 L351.21,844.82 L352.49,824.91 L353.37,835.11 L354.40,824.57 L355.40,835.43 L356.18,842.09 L357.49,843.27 L358.17,856.71 L359.17,852.45 L360.15,841.62 L361.14,858.14 L362.14,855.29 L363.26,839.56 L364.16,851.06 L365.11,858.88 L366.17,846.09 L367.29,842.58 L368.08,850.53 L369.08,845.96 L370.08,864.39 L371.08,860.66 L372.19,859.09 L373.09,860.44 L374.05,837.32 L375.04,844.03 L376.02,871.10 L377.02,853.78 L378.02,833.36 L379.43,857.66 L380.21,857.67 L380.99,859.34 L381.98,862.45 L382.98,861.31 L384.02,850.77 L385.09,834.43 L386.05,830.14 L387.11,846.43 L387.95,834.22 L388.92,833.38 L390.04,829.98 L391.22,813.92 L392.05,813.02 L393.15,837.23 L393.89,852.26 L394.89,854.01 L395.88,856.29 L396.92,858.72 L397.86,855.29 L398.97,845.74 L399.87,856.91 L400.85,838.12 L401.83,833.31 L403.04,849.36 L403.82,856.14 L404.82,860.68 L405.80,859.53 L406.79,861.92 L407.79,835.06 L408.93,827.21 L410.08,855.98 L410.92,845.18 L411.76,849.22 L413.07,832.64 L413.79,837.32 L414.91,831.23 L415.73,783.13 L416.72,870.32 L417.84,856.41 L418.70,858.89 L419.69,852.76 L420.69,833.01 L421.69,828.37 L422.67,835.36 L423.66,821.76 L424.86,827.15 L425.74,866.44 L426.63,851.19 L428.03,855.53 L428.63,864.26 L429.63,860.32 L430.60,834.94 L431.60,870.73 L432.72,843.12 L433.97,839.53 L434.79,840.66 L435.61,857.93 L436.73,858.61 L437.56,858.03 L438.56,868.28 L439.56,861.12 L440.53,856.03 L441.65,852.90 L442.53,852.43 L443.51,854.64 L444.50,866.02 L445.50,858.02 L446.72,849.04 L447.51,868.54 L448.47,860.32 L449.51,863.98 L450.47,864.02 L451.48,858.27 L452.62,867.80 L453.44,867.79 L454.43,869.52 L455.41,864.75 L456.41,862.13 L457.41,870.88 L458.52,856.84 L459.40,848.57 L460.38,851.56 L461.37,858.57 L462.37,859.61 L463.37,862.74 L464.37,860.81 L465.34,865.08 L466.34,869.47 L467.34,858.67 L468.43,857.40 L469.31,862.43 L470.31,860.31 L471.80,837.81 L472.34,859.14 L473.28,854.66 L474.28,840.41 L475.27,867.30 L476.27,865.97 L477.53,865.11 L478.25,869.14 L479.24,865.97 L480.24,867.71 L481.22,864.79 L482.27,855.92 L483.21,860.91 L484.33,864.02 L485.19,845.08 L486.18,863.33 L487.18,862.43 L488.38,850.26 L489.21,834.48 L490.27,832.29 L491.15,856.92 L492.15,864.74 L493.14,862.59 L494.26,849.68 L495.12,843.72 L496.11,837.26 L497.11,834.22 L498.09,842.37 L499.09,845.84 L500.08,865.28 L501.08,849.40 L502.32,868.86 L503.05,862.78 L504.05,869.13 L505.05,853.81 L506.35,850.90 L507.02,866.97 L508.02,867.67 L509.02,870.53 L509.99,867.94 L510.99,866.53 L512.19,868.06 L512.99,870.72 L513.98,868.49 L514.96,867.68 L515.96,870.61 L517.07,850.37 L517.95,846.43 L518.99,855.34 L519.93,870.58 L520.92,865.04 L521.92,857.75 L522.90,854.23 L523.89,859.96 L524.89,837.34 L525.89,852.27 L527.15,836.26 L528.18,857.32 L528.86,856.80 L530.02,850.07 L530.83,862.94 L531.83,867.26 L533.09,866.54 L533.83,856.30 L534.80,853.35 L535.80,862.17 L536.80,865.38 L537.79,864.97 L539.17,855.95 L539.77,864.49 L540.77,863.27 L541.92,855.39 L542.88,868.53 L543.90,853.22 L544.97,853.63 L545.77,834.42 L546.79,829.61 L547.97,827.55 L548.76,839.09 L549.86,839.79 L550.70,839.74 L551.67,858.84 L552.67,848.52 L553.81,854.56 L554.73,830.82 L555.82,859.10 L556.64,849.03 L558.00,856.26 L558.63,864.85 L559.63,863.36 L560.61,863.56 L561.77,868.62 L562.60,871.77 L563.82,847.94 L564.58,834.43 L565.57,845.39 L566.71,869.13 L567.57,838.69 L568.55,861.85 L569.54,844.73 L570.58,841.90 L571.54,840.17 L572.53,856.76 L573.51,864.91 L574.51,851.32 L575.69,834.34 L576.94,849.96 L577.50,851.25 L578.48,845.11 L579.63,860.04 L580.47,864.05 L581.45,869.09 L582.86,858.28 L583.50,857.03 L584.48,869.36 L585.42,869.95 L586.41,870.64 L587.41,865.58 L588.67,862.85 L589.74,870.15 L590.52,857.30 L591.38,859.86 L592.38,864.09 L593.37,859.70 L594.35,852.75 L595.35,853.00 L596.35,857.61 L597.34,856.79 L598.32,871.38 L599.32,873.41 L600.31,867.20 L601.31,853.26 L602.29,859.34 L603.29,866.77 L604.44,864.18 L605.38,842.55 L606.32,863.01 L607.51,866.46 L608.29,848.39 L609.25,843.15 L610.25,838.16 L611.22,844.15 L612.22,864.69 L613.34,869.75 L614.21,859.30 L615.19,854.79 L616.19,853.53 L617.19,866.26 L618.18,852.19 L619.68,846.41 L620.54,843.06 L621.15,847.45 L622.15,851.20 L623.35,851.83 L624.13,858.23 L625.12,857.72 L626.36,859.19 L627.12,868.96 L628.21,852.74 L629.13,860.33 L630.31,865.89 L631.25,866.05 L632.06,862.84 L633.28,860.81 L634.06,869.64 L635.25,866.46 L636.03,857.92 L637.03,865.38 L638.03,870.07 L639.02,868.64 L640.00,872.97 L641.00,863.13 L641.99,873.18 L642.99,866.56 L644.67,863.08 L645.13,866.29 L645.96,859.90 L646.96,853.45 L648.06,857.92 L648.93,859.70 L649.93,861.51 L651.21,865.02 L651.93,857.43 L652.90,848.66 L653.90,853.82 L655.02,853.70 L655.89,856.22 L656.87,860.78 L657.87,866.59 L658.87,862.35 L659.86,860.83 L660.86,866.54 L661.84,862.05 L662.83,872.11 L664.05,863.66 L664.83,873.20 L665.81,864.98 L666.82,863.80 L668.34,861.87 L668.88,863.21 L669.89,865.09 L670.77,855.76 L671.77,850.83 L672.77,852.35 L673.74,854.37 L674.74,860.62 L676.08,861.86 L676.73,852.50 L677.77,865.60 L678.71,848.63 L679.75,849.32 L680.92,856.80 L681.92,855.94 L682.86,854.70 L683.73,861.19 L684.83,865.58 L685.67,868.72 L686.82,858.55 L687.64,867.76 L688.64,872.30 L689.64,871.11 L690.61,856.56 L691.75,860.56 L692.61,835.86 L693.61,871.96 L694.58,854.79 L695.58,853.96 L696.58,859.70 L697.57,862.23 L698.57,862.00 L699.57,851.68 L700.78,863.08 L701.54,865.04 L702.52,860.86 L703.98,843.71 L704.51,859.16 L705.51,858.73 L706.51,854.69 L707.49,865.05 L708.48,866.27 L709.48,874.62 L710.48,866.55 L711.47,868.23 L712.81,864.04 L713.45,865.21 L714.45,863.29 L715.70,863.00 L716.42,852.40 L717.42,868.71 L718.41,857.56 L719.71,856.94 L720.39,850.89 L721.43,850.37 L722.38,859.61 L723.36,868.34 L724.36,870.36 L725.35,858.07 L726.47,865.45 L727.35,863.08 L728.33,850.23 L729.32,853.88 L730.32,863.62 L731.32,873.16 L732.33,864.76 L733.39,842.05 L734.29,837.84 L735.34,870.63 L736.26,857.18 L737.26,871.90 L739.11,860.54 L739.45,873.40 L740.23,871.07 L741.23,869.12 L742.23,871.84 L743.22,870.25 L744.22,872.00 L745.20,869.59 L746.19,872.90 L747.19,874.44 L748.49,872.74 L749.17,864.79 L750.16,855.64 L751.56,849.79 L752.16,856.25 L753.13,847.95 L754.13,855.91 L755.13,859.21 L756.12,851.01 L757.40,851.67 L758.10,865.09 L759.10,873.35 L760.15,863.74 L761.07,860.15 L762.07,869.44 L763.06,857.85 L764.20,832.09 L765.06,867.07 L766.04,866.17 L767.03,858.17 L768.03,857.31 L769.03,852.77 L770.14,853.62 L771.02,867.43 L772.24,853.34 L773.00,865.57 L773.99,860.60 L774.97,849.20 L776.33,840.37 L776.96,853.93 L777.94,863.77 L778.94,859.77 L779.94,846.82 L780.93,837.99 L781.93,844.14 L782.91,869.75 L783.90,854.24 L784.90,856.88 L786.20,844.42 L786.88,846.24 L787.87,853.20 L788.87,852.92 L789.87,847.22 L790.84,861.17 L791.84,861.79 L792.84,863.70 L793.84,873.11 L795.55,855.92 L796.17,872.28 L796.81,851.04 L797.80,857.17 L798.92,856.34 L799.78,864.49 L800.78,846.56 L801.77,858.61 L802.77,850.53 L803.77,854.98 L804.76,865.40 L805.76,861.18 L807.06,858.49 L807.96,866.48 L808.71,865.57 L809.71,865.02 L810.91,866.50 L811.68,862.09 L812.74,841.02 L813.86,863.99 L814.68,868.57 L815.65,861.66 L816.67,863.50 L817.65,865.04 L818.78,863.68 L819.84,863.41 L820.62,865.63 L821.62,866.61 L822.61,870.31 L823.61,868.48 L824.59,863.60 L825.84,851.42 L826.58,862.38 L827.58,856.84 L828.86,860.12 L829.55,862.87 L830.55,850.02 L831.83,842.39 L832.68,833.70 L833.94,849.68 L834.78,852.57 L835.52,843.73 L836.69,841.37 L837.69,856.16 L838.69,848.47 L839.48,863.07 L840.54,871.41 L841.76,849.10 L842.46,856.42 L843.65,861.58 L844.69,861.91 L845.43,866.92 L846.42,871.93 L847.42,869.36 L848.42,868.30 L849.62,873.51 L850.79,862.54 L851.53,842.10 L852.39,846.18 L854.12,863.59 L854.50,852.82 L855.40,865.14 L856.36,859.19 L857.53,845.01 L858.33,848.76 L859.51,850.81 L860.36,866.97 L861.50,862.02 L862.30,866.26 L863.40,849.20 L864.29,841.99 L865.29,854.33 L866.55,866.93 L867.38,818.07 L868.26,854.21 L869.52,838.89 L870.28,849.06 L871.41,846.22 L872.23,831.41 L873.23,828.45 L874.20,865.33 L875.34,836.73 L876.26,859.45 L877.20,862.65 L878.19,859.76 L879.17,853.37 L880.23,845.52 L881.16,855.25 L882.14,842.13 L883.14,786.30 L884.14,812.00 L885.39,813.71 L886.17,834.40 L887.35,830.79 L888.30,782.21 L889.10,840.49 L890.22,815.69 L891.45,795.60 L892.29,826.02 L893.23,847.18 L894.31,850.44 L895.06,857.02 L896.04,872.19 L897.04,856.75 L898.04,844.78 L899.03,858.39 L900.27,865.70 L901.01,866.20 L902.28,845.94 L903.08,847.01 L904.04,843.55 L904.98,822.76 L906.01,827.79 L906.97,850.40 L908.07,834.40 L909.34,851.30 L910.06,854.12 L910.94,866.53 L911.98,859.97 L913.11,844.48 L913.95,829.08 L915.15,833.29 L915.90,850.16 L916.88,849.38 L917.88,863.00 L919.08,857.76 L919.87,867.50 L920.85,870.17 L921.85,864.56 L922.98,867.22 L923.84,859.87 L924.82,850.17 L925.82,848.48 L927.01,850.31 L927.81,856.44 L928.79,851.85 L929.78,849.74 L930.78,856.85 L931.96,872.47 L932.78,864.82 L933.75,855.79 L934.75,853.25 L935.87,862.68 L936.76,841.36 L937.78,858.50 L938.72,865.16 L939.72,849.19 L941.03,854.54 L941.69,856.99 L942.69,862.54 L943.92,865.84 L944.78,868.59 L945.66,874.18 L946.66,862.40 L947.65,857.73 L948.91,862.59 L949.63,847.62 L950.90,859.66 L951.62,860.82 L952.62,863.65 L953.60,859.03 L954.59,853.71 L955.59,862.30 L956.85,868.97 L957.58,865.12 L958.56,866.70 L959.56,864.35 L960.56,861.87 L961.63,865.88 L962.79,861.97 L963.53,863.91 L964.66,833.86 L965.54,864.05 L966.50,830.93 L967.50,844.07 L968.49,850.81 L969.49,842.91 L970.89,851.18 L971.46,864.54 L972.58,867.12 L973.46,865.04 L974.46,855.47 L975.63,842.52 L976.43,862.29 L977.43,849.00 L978.42,844.25 L979.40,829.87 L980.78,840.69 L981.63,851.47 L982.55,849.26 L983.37,848.20 L984.37,816.78 L985.42,859.95 L986.48,859.57 L987.40,874.17 L988.34,829.84 L989.33,816.04 L990.33,795.52 L991.33,818.83 L992.48,853.13 L993.42,828.87 L994.30,852.10 L995.30,861.13 L996.27,855.96 L997.27,872.02 L998.49,851.67 L999.54,865.99 L1000.38,860.24 L1001.24,861.47 L1002.24,856.26 L1003.23,850.22 L1004.53,852.74 L1005.21,857.16 L1006.20,864.71 L1007.20,859.59 L1008.18,860.17 L1009.18,861.37 L1010.51,855.08 L1011.17,859.19 L1012.17,841.98 L1013.14,842.32 L1014.14,832.92 L1015.20,832.30 L1016.14,827.90 L1017.11,841.35 L1018.53,862.74 L1019.37,849.25 L1020.18,861.03 L1021.08,861.71 L1022.08,843.74 L1023.08,853.57 L1024.07,862.74 L1025.09,845.35 L1026.23,845.72 L1027.04,865.13 L1028.04,864.30 L1029.04,858.80 L1030.02,837.60 L1031.01,825.68 L1032.01,829.36 L1033.13,845.09 L1034.38,844.32 L1035.10,829.24 L1036.30,824.84 L1037.15,845.01 L1038.01,842.64 L1039.31,854.65 L1040.17,847.88 L1041.00,849.06 L1042.04,852.14 L1042.92,861.37 L1044.03,855.84 L1045.19,866.37 L1046.01,848.84 L1046.97,853.46 L1047.88,841.39 L1048.96,840.22 L1050.16,846.02 L1050.86,856.54 L1051.85,840.35 L1052.85,847.90 L1054.01,830.26 L1055.10,830.76 L1056.34,841.74 L1057.20,851.32 L1057.82,843.20 L1058.81,846.99 L1059.93,840.77 L1061.09,823.50 L1062.04,835.52 L1062.82,841.11 L1063.84,847.81 L1064.76,843.40 L1066.07,861.99 L1066.73,847.74 L1068.01,854.13 L1068.72,860.61 L1070.00,866.25" stroke="#1466ad" stroke-width="1.2" fill="none"/><text x="30" y="775" font-size="11">2.65</text><text x="30" y="875" font-size="11">0.04</text><path d="M85.00 755 V875" stroke="#b86" stroke-dasharray="3 4"/><path d="M175.16 755 V875" stroke="#b86" stroke-dasharray="3 4"/><path d="M324.13 755 V875" stroke="#b86" stroke-dasharray="3 4"/><path d="M378.87 755 V875" stroke="#b86" stroke-dasharray="3 4"/><path d="M444.72 755 V875" stroke="#b86" stroke-dasharray="3 4"/><path d="M505.55 755 V875" stroke="#b86" stroke-dasharray="3 4"/><path d="M589.31 755 V875" stroke="#b86" stroke-dasharray="3 4"/><path d="M636.51 755 V875" stroke="#b86" stroke-dasharray="3 4"/><path d="M738.56 755 V875" stroke="#b86" stroke-dasharray="3 4"/><path d="M818.33 755 V875" stroke="#b86" stroke-dasharray="3 4"/><path d="M853.60 755 V875" stroke="#b86" stroke-dasharray="3 4"/><path d="M950.05 755 V875" stroke="#b86" stroke-dasharray="3 4"/><path d="M1055.58 755 V875" stroke="#b86" stroke-dasharray="3 4"/><text x="85" y="892" font-size="11">0 s</text><text x="1010" y="892" font-size="11">49.4 s</text></svg>